PathFileType	4	(X/Y/Z)	TVC_9_Cal_03_0_static_RCNL2025.trc
DataRate	CameraRate	NumFrames	NumMarkers	Units	OrigDataRate	OrigDataStartFrame	OrigNumFrames
100	100	7	27	mm	100	228	260
Frame#	Time	R_Shoulder			L_Shoulder			C7			J_Notch			R_Elbow			L_Elbow			R_Wrist			L_Wrist			R_Asis			L_Asis			R_Psis			L_Psis			Sacral			Thoracic			Sternum			R_Thigh_Lateral			R_Knee_Lateral			R_Shank_Lateral			R_Ankle_Lateral			R_Heel			R_Toe			L_Thigh_Lateral			L_Knee_Lateral			L_Shank_Lateral			L_Ankle_Lateral			L_Heel			L_Toe		
		X1	Y1	Z1	X2	Y2	Z2	X3	Y3	Z3	X4	Y4	Z4	X5	Y5	Z5	X6	Y6	Z6	X7	Y7	Z7	X8	Y8	Z8	X9	Y9	Z9	X10	Y10	Z10	X11	Y11	Z11	X12	Y12	Z12	X13	Y13	Z13	X14	Y14	Z14	X15	Y15	Z15	X16	Y16	Z16	X17	Y17	Z17	X18	Y18	Z18	X19	Y19	Z19	X20	Y20	Z20	X21	Y21	Z21	X22	Y22	Z22	X23	Y23	Z23	X24	Y24	Z24	X25	Y25	Z25	X26	Y26	Z26	X27	Y27	Z27
228	2.27000000	-192.841446	1390.789917	-119.399727	-310.084442	1364.399292	-493.635315	-314.185699	1445.834106	-301.992035	-162.957184	1341.718262	-321.241302	-204.973083	1111.096191	58.592239	-298.904907	1042.914673	-602.861450	-143.947212	872.583221	41.285662	-230.420135	808.448425	-568.238800	-174.307938	937.266602	-130.874512	-236.698395	935.761841	-434.620819	-387.979218	952.281311	-195.332474	-405.722351	949.301575	-292.400299	-396.850784	950.791443	-243.866386	-403.276245	1168.165649	-255.975845	-110.996758	1150.324829	-319.985718	-253.549774	539.872009	-54.752663	-292.940277	443.213318	-115.397888	-270.098541	302.441040	-70.395645	-300.853668	74.070793	-140.612320	-355.336578	60.359005	-201.764404	-172.150345	48.999813	-179.540314	-238.622375	568.859863	-465.452606	-255.383057	420.186279	-412.312042	-275.382874	303.505768	-455.816528	-308.988770	79.900581	-379.241547	-354.079803	53.539757	-315.668365	-168.218399	44.757504	-372.158844
229	2.28000000	-192.783218	1390.781738	-119.448006	-310.018402	1364.449707	-493.584473	-314.156433	1445.859985	-301.930725	-162.870758	1341.709961	-321.217773	-205.019516	1111.132935	58.649502	-299.031372	1042.903931	-602.875122	-143.998444	872.567749	41.298615	-230.425751	808.519836	-568.302765	-174.375443	937.265625	-130.909393	-236.761887	935.804199	-434.724609	-388.024231	952.311707	-195.438446	-405.747650	949.378357	-292.531403	-396.885941	950.845032	-243.984924	-403.250671	1168.169189	-256.004059	-111.014336	1150.332397	-319.949432	-253.478775	539.853638	-54.840199	-292.880707	443.246521	-115.389336	-269.945862	302.398315	-70.442451	-300.633392	74.052162	-140.776199	-355.326843	60.352890	-201.770096	-172.075974	48.946083	-179.518677	-238.725891	568.821899	-465.458527	-255.537460	420.142731	-412.417572	-275.448395	303.495148	-455.800995	-309.134399	79.827278	-378.922699	-354.157654	53.490330	-315.623962	-168.251740	44.760017	-372.169800
230	2.29000000	-192.738892	1390.784790	-119.428421	-310.010254	1364.475830	-493.583649	-314.113159	1445.951782	-301.913727	-162.879639	1341.702393	-321.175018	-204.996017	1111.083984	58.601200	-299.074677	1043.028076	-603.035278	-144.103294	872.550964	41.242712	-230.387688	808.661835	-568.355042	-174.196854	937.148926	-130.911484	-236.771103	935.618469	-434.703735	-388.050842	952.380554	-195.530090	-405.711853	949.352600	-292.566101	-396.881348	950.866577	-244.048096	-403.253448	1168.153198	-256.003693	-110.914299	1150.311890	-319.902802	-253.614822	539.913025	-54.676418	-292.772827	443.234375	-115.373276	-269.923370	302.387329	-70.450974	-300.690857	74.001945	-140.733063	-355.322845	60.349781	-201.771378	-172.043686	49.002144	-179.545059	-238.811783	568.838684	-465.523682	-255.526810	420.119293	-412.457123	-275.458740	303.510315	-455.865204	-309.111389	79.788269	-378.844513	-354.157379	53.483913	-315.644775	-168.243011	44.743866	-372.206512
231	2.30000000	-192.676132	1390.743408	-119.485519	-310.033417	1364.482544	-493.535461	-314.018982	1445.907715	-301.882690	-162.894302	1341.719482	-321.151886	-205.100952	1111.042725	58.681129	-299.212341	1043.026611	-603.064331	-144.104248	872.538086	41.177535	-230.457901	808.696228	-568.398712	-174.161224	937.141785	-130.916336	-236.676926	935.916626	-434.953369	-388.010803	952.374146	-195.585800	-405.738922	949.305603	-292.682861	-396.874863	950.839874	-244.134331	-403.160339	1168.153198	-256.066650	-110.887535	1150.330444	-319.848419	-253.507401	539.892456	-54.771061	-292.728210	443.209351	-115.418091	-269.826080	302.364319	-70.448242	-300.797089	74.060371	-140.659805	-355.270416	60.337246	-201.705719	-172.073273	48.977463	-179.535934	-238.856216	568.850159	-465.595978	-255.540985	420.045654	-412.495270	-275.496429	303.435028	-455.872742	-309.167328	79.760422	-378.879303	-354.184479	53.540852	-315.597382	-168.227493	44.742580	-372.194305
232	2.31000000	-192.675568	1390.670532	-119.472908	-309.875854	1364.534912	-493.531708	-314.018188	1445.874023	-301.869324	-162.885452	1341.757202	-321.153992	-205.148758	1111.074585	58.792217	-299.269104	1043.097656	-603.108154	-144.239700	872.441040	41.188575	-230.487701	808.752960	-568.469086	-173.965714	937.217834	-130.999115	-236.734406	935.931396	-435.072998	-388.011292	952.386658	-195.681686	-405.744934	949.355774	-292.658264	-396.878113	950.871216	-244.169975	-403.168274	1168.143311	-256.048279	-110.892952	1150.347534	-319.843750	-253.451157	539.881897	-54.754982	-292.722260	443.226105	-115.406326	-269.825165	302.443329	-70.551559	-300.791016	74.071602	-140.667572	-355.264252	60.334335	-201.700272	-172.042252	48.943287	-179.546722	-238.769547	568.872803	-465.648438	-255.465958	420.047089	-412.580231	-275.462067	303.392273	-456.091919	-309.040894	79.769653	-378.921112	-354.189941	53.557068	-315.608215	-168.220657	44.713947	-372.210876
233	2.32000000	-192.627609	1390.646118	-119.431297	-309.861908	1364.564453	-493.521515	-313.945801	1445.821655	-301.816681	-162.874344	1341.797729	-321.136688	-205.081345	1111.040527	58.782482	-299.234009	1043.189819	-603.199890	-144.274338	872.439453	41.097861	-230.528030	808.780487	-568.531891	-174.129135	937.131042	-131.080826	-236.759354	935.849426	-435.121338	-387.983551	952.374939	-195.735245	-405.716614	949.394958	-292.815674	-396.850082	950.884949	-244.275459	-403.175873	1168.128174	-256.043060	-110.919853	1150.264160	-319.840790	-253.353989	539.878662	-54.896679	-292.729340	443.242950	-115.448486	-269.836334	302.459808	-70.557182	-301.259979	74.276505	-140.252747	-355.303497	60.296776	-201.779144	-172.050903	49.015347	-179.544739	-238.566498	568.818848	-465.781097	-255.343826	420.006927	-412.607849	-275.397614	303.356628	-456.076385	-309.019043	79.723068	-378.943451	-354.187347	53.613773	-315.638397	-168.140274	44.695560	-372.219666
234	2.33000000	-192.591476	1390.602661	-119.406845	-309.874329	1364.578125	-493.489105	-313.986084	1445.840088	-301.793671	-162.802933	1341.843140	-321.131714	-205.116623	1110.958252	58.815899	-299.162720	1043.213135	-603.263855	-144.242325	872.361481	41.091024	-230.564980	808.875549	-568.633179	-174.159592	937.151855	-131.131241	-236.866455	935.840210	-435.222809	-387.950867	952.372375	-195.743958	-405.777802	949.394592	-292.771088	-396.864334	950.883484	-244.257523	-403.086060	1168.097290	-256.128082	-110.930260	1150.255493	-319.865845	-253.213150	539.844116	-55.186165	-292.807312	443.268555	-115.549103	-269.827271	302.486664	-70.598289	-301.399048	74.357529	-140.150574	-355.324524	60.311405	-201.771973	-172.038147	48.977238	-179.576645	-238.354904	568.821960	-465.887970	-255.282379	420.034698	-412.653900	-275.282043	303.343811	-456.203369	-309.106201	79.692696	-378.944214	-354.124054	53.588013	-315.668243	-168.174606	44.660957	-372.297180
